<svg width="40" height="41" viewBox="0 0 40 41" fill="none" xmlns="http://www.w3.org/2000/svg">
<path d="M16.85 19.0813H12.4333C11.3833 19.0813 10.5333 19.9312 10.5333 20.9812V29.5145H16.85V19.0813V19.0813Z" stroke="#8C8C8C" stroke-width="1.5" stroke-miterlimit="10" stroke-linecap="round" stroke-linejoin="round"/>
<path d="M21.2688 11.4978H18.7354C17.6854 11.4978 16.8354 12.3478 16.8354 13.3978V29.4979H23.1521V13.3978C23.1521 12.3478 22.3188 11.4978 21.2688 11.4978Z" stroke="#8C8C8C" stroke-width="1.5" stroke-miterlimit="10" stroke-linecap="round" stroke-linejoin="round"/>
<path d="M27.5802 21.9146H23.1636V29.498H29.4803V23.8146C29.4636 22.7646 28.6136 21.9146 27.5802 21.9146Z" stroke="#8C8C8C" stroke-width="1.5" stroke-miterlimit="10" stroke-linecap="round" stroke-linejoin="round"/>
<path d="M15 37.1644H25C33.3334 37.1644 36.6667 33.8311 36.6667 25.4977V15.4977C36.6667 7.16439 33.3334 3.83105 25 3.83105H15C6.66671 3.83105 3.33337 7.16439 3.33337 15.4977V25.4977C3.33337 33.8311 6.66671 37.1644 15 37.1644Z" stroke="#8C8C8C" stroke-width="1.5" stroke-linecap="round" stroke-linejoin="round"/>
</svg>
