<svg width="40" height="41" viewBox="0 0 40 41" fill="none" xmlns="http://www.w3.org/2000/svg">
<path d="M13.3333 19.4976C13.3333 20.7809 14.3333 21.8309 15.55 21.8309H18.05C19.1167 21.8309 19.9833 20.9142 19.9833 19.7976C19.9833 18.5809 19.45 18.1476 18.6667 17.8642L14.6667 16.4642C13.8667 16.1809 13.3333 15.7476 13.3333 14.5309C13.3333 13.4142 14.2 12.4976 15.2667 12.4976H17.7667C19 12.5142 20 13.5476 20 14.8309" stroke="white" stroke-width="1.5" stroke-linecap="round" stroke-linejoin="round"/>
<path d="M16.6667 21.9143V23.1476" stroke="white" stroke-width="1.5" stroke-linecap="round" stroke-linejoin="round"/>
<path d="M16.6667 11.1809V12.4809" stroke="white" stroke-width="1.5" stroke-linecap="round" stroke-linejoin="round"/>
<path d="M16.65 30.4641C24.0046 30.4641 29.9667 24.5021 29.9667 17.1475C29.9667 9.79289 24.0046 3.83081 16.65 3.83081C9.29542 3.83081 3.33334 9.79289 3.33334 17.1475C3.33334 24.5021 9.29542 30.4641 16.65 30.4641Z" stroke="white" stroke-width="1.5" stroke-linecap="round" stroke-linejoin="round"/>
<path d="M21.6333 33.631C23.1333 35.7476 25.5833 37.131 28.3833 37.131C32.9333 37.131 36.6333 33.431 36.6333 28.881C36.6333 26.1143 35.2667 23.6643 33.1833 22.1643" stroke="white" stroke-width="1.5" stroke-linecap="round" stroke-linejoin="round"/>
</svg>
